<svg xmlns="http://www.w3.org/2000/svg" width="2000" height="305" viewBox="0 0 2000 305" version="1.1"><path d="M 149.217 6.652 C 132.188 35.907, -0 265.338, -0 265.639 C -0 265.850, 17.352 265.906, 38.561 265.762 L 77.121 265.500 114.616 200.500 C 135.238 164.750, 160.475 121.100, 170.698 103.500 C 180.920 85.900, 189.932 70.364, 190.724 68.976 C 192.111 66.546, 191.465 65.237, 173.458 33.976 C 163.169 16.114, 154.403 1.118, 153.977 0.652 C 153.552 0.185, 151.409 2.885, 149.217 6.652 M 210.236 166.776 C 199.641 185.324, 182.527 215.125, 172.205 233 L 153.438 265.500 191.322 265.762 C 222.477 265.977, 229.114 266.262, 228.691 267.363 C 228.409 268.099, 223.448 276.869, 217.668 286.851 L 207.159 305 245.686 305 C 278.911 305, 284.137 304.801, 283.658 303.552 C 283.353 302.755, 274.926 288.018, 264.933 270.802 C 254.939 253.586, 246.761 239.050, 246.758 238.500 C 246.756 237.950, 251.605 229.175, 257.535 219 C 263.465 208.825, 268.320 200.049, 268.325 199.497 C 268.335 198.261, 230.705 132.990, 230.004 133.026 C 229.727 133.041, 220.831 148.228, 210.236 166.776" stroke="none" fill="#fbbf69" fill-rule="evenodd"/><path d="M 879 11.188 C 865.670 13.527, 856.712 29.101, 861.494 41.623 C 868.115 58.960, 888.962 63.057, 900.970 49.382 C 907.336 42.131, 908.743 33.441, 904.916 25 C 900.143 14.472, 890.270 9.210, 879 11.188 M 1966.500 12.383 C 1957.211 16.775, 1953 23.565, 1953 34.152 C 1953 45.346, 1959.086 53.484, 1969.803 56.621 C 1980.012 59.609, 1990.876 55.678, 1996.689 46.894 C 1998.940 43.492, 1999.547 41.306, 1999.838 35.545 C 2000.076 30.831, 1999.707 27.237, 1998.750 24.955 C 1993.468 12.345, 1978.731 6.601, 1966.500 12.383 M 1969.500 16.502 C 1957.455 20.761, 1954.045 38.648, 1963.566 47.627 C 1969.953 53.651, 1980.783 54.139, 1988.357 48.746 C 1992.086 46.091, 1994.956 39.677, 1994.956 34 C 1994.956 20.180, 1982.776 11.808, 1969.500 16.502 M 1411 55 C 1411 75.350, 1410.826 92, 1410.614 92 C 1410.402 92, 1407.589 90.274, 1404.364 88.165 C 1392.695 80.533, 1381.024 77, 1367.478 77 C 1331.333 77, 1300.428 104.575, 1292.452 143.942 C 1289.988 156.102, 1290.843 174.342, 1294.445 186.451 C 1305.046 222.088, 1334.060 245.323, 1368 245.355 C 1383.553 245.370, 1397.294 240.827, 1410.075 231.445 L 1414.654 228.084 1418.018 236.042 L 1421.382 244 1436.691 244 L 1452 244 1452 131 L 1452 18 1431.500 18 L 1411 18 1411 55 M 1808 131 L 1808 244 1829.024 244 L 1850.048 244 1849.774 207 C 1849.623 186.649, 1849.725 170.026, 1850 170.058 C 1850.275 170.091, 1863.078 186.741, 1878.450 207.059 L 1906.401 244 1929.700 244 C 1942.515 244, 1953 243.798, 1953 243.551 C 1953 243.305, 1938.173 223.860, 1920.052 200.341 C 1900.423 174.865, 1887.429 157.159, 1887.909 156.540 C 1892.198 150.995, 1946 78.962, 1946 78.764 C 1946.001 78.415, 1898.759 78.879, 1898.535 79.229 C 1897.881 80.254, 1850.640 144.645, 1850.136 145.200 C 1849.786 145.585, 1849.619 117.123, 1849.765 81.950 L 1850.029 18 1829.015 18 L 1808 18 1808 131 M 1968 34 L 1968 46 1970.500 46 C 1972.722 46, 1973 45.583, 1973 42.250 C 1973 38.933, 1973.284 38.500, 1975.461 38.500 C 1977.337 38.500, 1978.323 39.391, 1979.613 42.250 C 1980.992 45.310, 1981.828 46, 1984.152 46 C 1987.555 46, 1987.548 46.043, 1984.912 41.576 L 1982.825 38.038 1984.912 35.384 C 1987.799 31.714, 1987.533 28.379, 1984.077 24.923 C 1981.439 22.285, 1980.513 22, 1974.577 22 L 1968 22 1968 34 M 1973 30.216 C 1973 33.514, 1973.048 33.548, 1977.056 33.166 C 1980.771 32.812, 1981.086 32.557, 1980.806 30.140 C 1980.544 27.878, 1979.963 27.456, 1976.750 27.190 C 1973.104 26.888, 1973 26.972, 1973 30.216 M 761.504 40.250 C 761.266 40.938, 760.942 48.331, 760.785 56.681 C 760.531 70.193, 760.273 72.164, 758.438 74.619 C 754.110 80.407, 751.704 81.401, 740.973 81.832 L 731 82.233 731 99.616 L 731 117 743.440 117 L 755.880 117 756.256 158.750 C 756.612 198.325, 756.744 200.840, 758.796 207.025 C 764.718 224.884, 777.690 238.059, 794.458 243.248 C 802.798 245.828, 818.425 246.095, 826.500 243.795 L 831.500 242.371 831.772 224.435 L 832.044 206.500 821.703 206.500 C 812.159 206.500, 811.048 206.293, 807.304 203.817 C 804.656 202.067, 802.334 199.305, 800.623 195.871 L 798 190.607 798 153.804 L 798 117 816.022 117 L 834.043 117 833.772 97.946 L 833.500 78.892 815.750 78.899 L 798 78.906 798 58.953 L 798 39 779.969 39 C 766.441 39, 761.829 39.312, 761.504 40.250 M 453.681 79.011 C 438.322 82.893, 424.523 91.660, 415.923 103 C 410.866 109.668, 405.756 121.208, 404.520 128.750 L 403.824 133 424.804 133 L 445.783 133 446.469 130.250 C 447.510 126.079, 451.555 121.345, 456.609 118.383 C 461.918 115.272, 472.067 114.119, 478.596 115.886 C 488.196 118.484, 494.865 126.786, 496.438 138.097 L 497.077 142.693 482.288 143.293 C 456.539 144.338, 435.062 149.390, 421.335 157.631 C 413.775 162.170, 410.567 165.218, 405.983 172.221 C 400.554 180.514, 398.677 188.466, 399.159 201.136 C 399.504 210.233, 399.941 212.328, 402.735 218.274 C 408.629 230.820, 420.636 240.042, 435.750 243.632 C 445.022 245.834, 462.594 245.796, 471 243.555 C 478.584 241.533, 489.552 236.233, 496.104 231.424 L 500.712 228.041 504.106 236.012 L 507.500 243.983 523.303 243.992 L 539.105 244 538.740 186.750 C 538.329 122.549, 538.550 124.682, 530.739 109.634 C 523.676 96.027, 510.187 84.778, 495 79.829 C 485.420 76.707, 464.441 76.292, 453.681 79.011 M 625 79.068 C 590.822 87.993, 565.973 116.754, 561.785 152.235 C 558.903 176.653, 567.212 200.769, 584.885 219.281 C 601.887 237.089, 620.808 245.438, 644 245.365 C 661.901 245.309, 676.383 240.346, 690.747 229.343 C 704.695 218.660, 717.332 199.910, 720.464 185.250 L 721.159 182 700.610 182 L 680.061 182 676.668 187.304 C 662.792 208.996, 632.619 212.036, 615.095 193.507 C 606.126 184.023, 602.382 172.712, 603.342 158 C 605.045 131.914, 621.907 115.904, 646.329 117.187 C 653.158 117.545, 655.511 118.154, 660.654 120.896 C 667.456 124.522, 674.749 131.261, 677.601 136.558 L 679.455 140 700.246 140 L 721.038 140 720.385 137.250 C 717.877 126.691, 709.825 112.361, 700.979 102.713 C 690.037 90.781, 677.070 82.982, 661.590 79.023 C 651.060 76.330, 635.413 76.349, 625 79.068 M 994.365 78.430 C 968.578 84.303, 946.082 102.918, 934.841 127.683 C 930.833 136.515, 928.030 150.258, 928.013 161.162 C 927.979 183.761, 936.338 204.020, 952.500 220.506 C 983.092 251.712, 1028.405 254.144, 1062.454 226.408 C 1074.267 216.785, 1086.433 197.716, 1090.466 182.500 C 1092.915 173.261, 1093.499 157.018, 1091.743 146.983 C 1086.286 115.793, 1063.292 89.796, 1032.500 80.003 C 1023.531 77.151, 1003.593 76.328, 994.365 78.430 M 1190.500 77.617 C 1178.743 80.618, 1170.447 84.242, 1161.548 90.263 C 1158.275 92.478, 1155.444 93.888, 1155.257 93.395 C 1155.071 92.903, 1153.474 89.434, 1151.709 85.686 L 1148.500 78.871 1133.250 78.686 L 1118 78.500 1118 161.250 L 1118 244 1138.449 244 L 1158.898 244 1159.199 193.250 L 1159.500 142.500 1162.135 136.880 C 1165.707 129.262, 1171.051 123.614, 1177.839 120.280 C 1182.824 117.832, 1184.635 117.500, 1193 117.501 C 1201.542 117.502, 1203.090 117.801, 1208.352 120.463 C 1215.473 124.067, 1221.168 130.310, 1224.213 137.853 C 1226.465 143.431, 1226.496 144.113, 1226.798 193.750 L 1227.102 244 1247.597 244 L 1268.092 244 1267.788 186.750 L 1267.484 129.500 1264.771 121.479 C 1257.907 101.186, 1244.164 87.020, 1224.835 80.314 C 1218.835 78.232, 1215.225 77.709, 1205 77.438 C 1198.125 77.255, 1191.600 77.336, 1190.500 77.617 M 1545.075 78.025 C 1527.968 81.623, 1512.731 90.229, 1500.309 103.310 C 1483.875 120.614, 1475.975 142.140, 1477.316 165.958 C 1478.295 183.353, 1483.582 197.835, 1494.221 212.263 C 1511.828 236.139, 1543.060 249.461, 1570.500 244.801 C 1588.424 241.756, 1601.415 234.836, 1615 221.097 C 1623.925 212.071, 1630.191 202.794, 1632.458 195.250 L 1633.135 193 1611.949 193 L 1590.764 193 1587.345 196.002 C 1572.907 208.678, 1547.500 209.114, 1533.651 196.924 C 1530.780 194.397, 1527.762 190.249, 1525.490 185.707 L 1521.884 178.500 1579.270 178.242 L 1636.656 177.984 1637.849 168.742 C 1639.733 154.133, 1637.051 137.495, 1630.535 123.378 C 1620.754 102.184, 1603.538 86.950, 1581.500 79.988 C 1573.604 77.494, 1552.903 76.378, 1545.075 78.025 M 1699 78.907 C 1690.164 81.337, 1686.129 83.159, 1679.267 87.819 C 1664.062 98.144, 1657.407 111.421, 1658.181 129.887 C 1658.694 142.129, 1661.488 148.660, 1669.716 156.848 C 1679.149 166.236, 1684.993 168.939, 1715.372 177.967 C 1730.594 182.491, 1738.373 185.960, 1739.964 188.933 C 1741.616 192.019, 1741.168 197.992, 1739.025 201.459 C 1736.167 206.083, 1728.104 210.145, 1720.636 210.724 C 1708.902 211.632, 1697.850 204.907, 1694.900 195.062 L 1693.683 191 1673.713 191 L 1653.742 191 1654.393 195.908 C 1656.667 213.050, 1668.797 230.325, 1683.917 237.958 C 1694.675 243.389, 1703.581 245.214, 1720 245.355 C 1732.385 245.461, 1735.662 245.145, 1742.465 243.184 C 1762.015 237.549, 1775.541 225.631, 1781.114 209.129 C 1782.801 204.133, 1783.119 201.110, 1782.841 192.724 C 1782.536 183.540, 1782.157 181.748, 1779.279 175.909 C 1775.107 167.442, 1765.819 158.445, 1756.307 153.655 C 1752.396 151.685, 1740.714 147.544, 1730.348 144.453 C 1709.378 138.199, 1702.195 134.918, 1700.164 130.665 C 1696.787 123.595, 1703.155 114.201, 1712.712 112.154 C 1724.034 109.729, 1735.198 114.656, 1740.118 124.250 L 1742.041 128 1761.354 128 C 1771.976 128, 1780.920 127.747, 1781.230 127.437 C 1782.284 126.382, 1778.942 114.627, 1775.718 108.053 C 1771.030 98.489, 1760.453 88.054, 1750.922 83.586 C 1746.840 81.672, 1740.031 79.408, 1735.792 78.553 C 1725.260 76.431, 1707.382 76.603, 1699 78.907 M 862 161.250 L 862 244 882.500 244 L 903 244 903 162 C 903 116.900, 903 79.763, 903 79.473 C 903 79.183, 893.775 78.846, 882.500 78.723 L 861.999 78.500 862 161.250 M 168.737 106.663 C 168.468 107.123, 147.887 142.825, 123.002 186 C 98.116 229.175, 77.280 265.093, 76.698 265.818 C 76.117 266.544, 70.794 275.544, 64.869 285.818 L 54.096 304.500 91.795 304.762 C 112.529 304.907, 129.992 304.833, 130.601 304.600 C 131.565 304.230, 153 267.977, 153 266.716 C 153 266.454, 165.182 245.148, 180.070 219.370 C 194.959 193.591, 207.221 172.244, 207.320 171.932 C 207.508 171.340, 171.369 108.130, 170.005 106.663 C 169.576 106.202, 169.006 106.202, 168.737 106.663 M 997.666 119.008 C 986.908 122.830, 979.198 129.364, 974.619 138.542 C 971.147 145.501, 970.051 150.992, 970.036 161.500 C 970.011 179.449, 975.566 190.885, 988.311 199.122 C 996.386 204.342, 1006.834 206.655, 1015.700 205.185 C 1037.510 201.571, 1050.929 184.882, 1050.985 161.299 C 1051.029 142.735, 1043.061 128.599, 1028.495 121.400 C 1022.084 118.232, 1019.971 117.702, 1012.311 117.346 C 1005.202 117.015, 1002.373 117.336, 997.666 119.008 M 1363.746 118.029 C 1353.684 120.553, 1343.319 128.322, 1338.706 136.798 C 1331.561 149.927, 1331.184 170.312, 1337.837 183.913 C 1345.079 198.720, 1363.331 207.889, 1379.841 205.014 C 1401.358 201.267, 1414 185.289, 1414 161.839 C 1414 141.635, 1406.242 128.220, 1390.225 120.725 C 1384.819 118.195, 1382.101 117.571, 1375.545 117.353 C 1371.120 117.207, 1365.811 117.511, 1363.746 118.029 M 1547.286 118.396 C 1540.963 120.455, 1534.776 124.399, 1530.574 129.049 C 1526.996 133.011, 1521.002 144.091, 1521.001 146.750 C 1521 147.728, 1529.366 148, 1559.500 148 C 1591.372 148, 1598 147.765, 1598 146.634 C 1598 143.355, 1590.670 130.951, 1586.415 127.028 C 1579.059 120.248, 1572.231 117.635, 1561 117.304 C 1554.929 117.124, 1549.979 117.519, 1547.286 118.396 M 476.558 173.098 C 453.565 174.991, 443.781 179.673, 440.965 190.129 C 437.080 204.557, 451.654 215.691, 469.580 211.991 C 486.970 208.401, 497 195.708, 497 177.290 L 497 172 491.750 172.140 C 488.863 172.217, 482.026 172.648, 476.558 173.098" stroke="none" fill="#12113c" fill-rule="evenodd"/></svg>