<svg width="268" height="86" viewBox="0 0 268 86" fill="none" xmlns="http://www.w3.org/2000/svg">
    <circle cx="12" cy="14" r="12" fill="#273644"/>
    <circle cx="30" cy="44" r="12" fill="#22F0C3"/>
    <circle cx="48" cy="74" r="12" fill="#22F0C3"/>
    <circle cx="260" cy="62" r="8" fill="#22F0C3"/>
    <circle cx="46" cy="14" r="12" fill="#273644"/>
    <circle cx="64" cy="44" r="12" fill="#22F0C3"/>
    <circle cx="80" cy="14" r="12" fill="#22F0C3"/>
    <path d="M104.561 69V19.085H125.532C128.525 19.085 131.093 19.621 133.237 20.693C135.426 21.765 137.101 23.2837 138.262 25.249C139.468 27.1697 140.071 29.47 140.071 32.15C140.071 34.6067 139.423 36.84 138.128 38.85C136.877 40.8153 135.024 42.3563 132.567 43.473L132.5 40.994C134.644 41.798 136.408 42.87 137.793 44.21C139.222 45.5053 140.294 47.024 141.009 48.766C141.724 50.4633 142.081 52.2723 142.081 54.193C142.081 58.7937 140.607 62.4117 137.659 65.047C134.711 67.6823 130.691 69 125.599 69H104.561ZM111.127 62.97H125.867C128.77 62.97 131.093 62.1883 132.835 60.625C134.577 59.0617 135.448 56.94 135.448 54.26C135.448 51.58 134.577 49.4583 132.835 47.895C131.093 46.287 128.77 45.483 125.867 45.483H111.127V62.97ZM111.127 39.587H125.398C127.81 39.587 129.753 38.8947 131.227 37.51C132.701 36.0807 133.438 34.2717 133.438 32.083C133.438 29.805 132.701 28.063 131.227 26.857C129.753 25.651 127.81 25.048 125.398 25.048H111.127V39.587ZM164.016 69.804C160.532 69.804 157.383 69 154.569 67.392C151.755 65.7393 149.521 63.4837 147.869 60.625C146.216 57.7663 145.39 54.528 145.39 50.91C145.39 47.292 146.194 44.076 147.802 41.262C149.454 38.448 151.688 36.2147 154.502 34.562C157.316 32.9093 160.487 32.083 164.016 32.083C167.5 32.083 170.649 32.9093 173.463 34.562C176.277 36.17 178.488 38.381 180.096 41.195C181.748 44.009 182.575 47.2473 182.575 50.91C182.575 54.5727 181.726 57.8333 180.029 60.692C178.331 63.506 176.076 65.7393 173.262 67.392C170.492 69 167.41 69.804 164.016 69.804ZM164.016 63.774C166.249 63.774 168.259 63.2157 170.046 62.099C171.877 60.9823 173.306 59.4413 174.334 57.476C175.406 55.5107 175.942 53.322 175.942 50.91C175.942 48.4533 175.406 46.287 174.334 44.411C173.306 42.4903 171.877 40.9717 170.046 39.855C168.259 38.6937 166.249 38.113 164.016 38.113C161.738 38.113 159.683 38.6937 157.852 39.855C156.065 40.9717 154.636 42.4903 153.564 44.411C152.492 46.287 151.956 48.4533 151.956 50.91C151.956 53.322 152.492 55.5107 153.564 57.476C154.636 59.4413 156.065 60.9823 157.852 62.099C159.683 63.2157 161.738 63.774 164.016 63.774ZM201.37 69.402C197.842 69.402 195.117 68.397 193.196 66.387C191.32 64.377 190.382 61.5407 190.382 57.878V38.85H183.816V32.887H185.156C186.764 32.887 188.037 32.3957 188.975 31.413C189.913 30.4303 190.382 29.135 190.382 27.527V24.579H196.613V32.887H204.72V38.85H196.613V57.677C196.613 58.883 196.792 59.9327 197.149 60.826C197.551 61.7193 198.199 62.434 199.092 62.97C199.986 63.4613 201.169 63.707 202.643 63.707C202.956 63.707 203.336 63.6847 203.782 63.64C204.274 63.5953 204.72 63.5507 205.122 63.506V69C204.542 69.134 203.894 69.2233 203.179 69.268C202.465 69.3573 201.862 69.402 201.37 69.402ZM224.585 69.402C221.056 69.402 218.331 68.397 216.411 66.387C214.535 64.377 213.597 61.5407 213.597 57.878V38.85H207.031V32.887H208.371C209.979 32.887 211.252 32.3957 212.19 31.413C213.128 30.4303 213.597 29.135 213.597 27.527V24.579H219.828V32.887H227.935V38.85H219.828V57.677C219.828 58.883 220.006 59.9327 220.364 60.826C220.766 61.7193 221.413 62.434 222.307 62.97C223.2 63.4613 224.384 63.707 225.858 63.707C226.17 63.707 226.55 63.6847 226.997 63.64C227.488 63.5953 227.935 63.5507 228.337 63.506V69C227.756 69.134 227.108 69.2233 226.394 69.268C225.679 69.3573 225.076 69.402 224.585 69.402ZM233.126 69V18.281H239.357V69H233.126Z" fill="#273644"/>
</svg>
