<svg width="128" height="128" viewBox="0 0 128 128" fill="none" xmlns="http://www.w3.org/2000/svg">
<rect x="6" y="6" width="117" height="117" rx="16" fill="#6D28D9"/>
<path d="M33.3828 57.9531C33.6953 54.3854 33.9427 50.8568 34.125 47.3672C34.3333 43.8776 34.5547 40.2969 34.7891 36.625C34.8411 35.7656 34.9193 35.1797 35.0234 34.8672C35.1536 34.5286 35.4531 34.3073 35.9219 34.2031C38.3438 33.7604 40.7656 33.3177 43.1875 32.875C45.6354 32.4062 48.0833 31.7943 50.5312 31.0391C50.6094 31.013 50.7266 31 50.8828 31C51.1693 31 51.3125 31.1302 51.3125 31.3906L46.2344 87.1719V87.8359C46.2344 88.0703 46.1432 88.2656 45.9609 88.4219C45.7786 88.5521 45.349 88.7083 44.6719 88.8906L34.4375 92.6406C34.151 92.7708 33.7734 92.901 33.3047 93.0312C32.8359 93.1875 32.3802 93.2656 31.9375 93.2656C31.5729 93.2656 31.2474 93.1745 30.9609 92.9922C30.7005 92.8099 30.5703 92.4974 30.5703 92.0547V91.8203C30.7786 89.1901 30.974 86.625 31.1562 84.125C31.3646 81.599 31.5729 78.9948 31.7812 76.3125C32.0156 73.6302 32.263 70.7917 32.5234 67.7969C32.7839 64.8021 33.0703 61.5208 33.3828 57.9531ZM71.4688 78.2656C71.7292 78.7865 72.0938 79.3203 72.5625 79.8672C73.0573 80.388 73.6172 80.8698 74.2422 81.3125C74.8932 81.7552 75.5964 82.1198 76.3516 82.4062C77.1068 82.6667 77.888 82.7969 78.6953 82.7969C79.8151 82.7969 80.8698 82.3672 81.8594 81.5078C82.849 80.6224 83.7083 79.4505 84.4375 77.9922C85.1927 76.5078 85.7786 74.8281 86.1953 72.9531C86.612 71.0521 86.8203 69.0859 86.8203 67.0547C86.8203 65.8047 86.7031 64.6198 86.4688 63.5C86.2604 62.3802 85.9219 61.4036 85.4531 60.5703C84.9844 59.737 84.3724 59.0729 83.6172 58.5781C82.888 58.0833 82.0026 57.8359 80.9609 57.8359C79.2682 57.8359 77.7188 58.3307 76.3125 59.3203C74.9062 60.3099 73.7214 61.5729 72.7578 63.1094L71.4688 78.2656ZM56.9375 92.9141C56.5729 92.9922 56.2865 93.0312 56.0781 93.0312C55.2448 93.0312 54.8281 92.5365 54.8281 91.5469C54.8281 91.4167 54.8281 91.2865 54.8281 91.1562C54.8542 91.026 54.8802 90.8828 54.9062 90.7266L59.4375 35.4531C59.4375 35.375 59.4375 35.2969 59.4375 35.2188C59.4635 35.1406 59.4766 35.0755 59.4766 35.0234C59.4766 34.9193 59.4635 34.8281 59.4375 34.75C59.4375 34.6719 59.4375 34.6068 59.4375 34.5547C59.4375 34.3203 59.5156 34.138 59.6719 34.0078C59.8542 33.8516 60.2969 33.6823 61 33.5L71.9766 30.8828C72.263 30.8307 72.6406 30.7135 73.1094 30.5312C73.5781 30.349 74.0339 30.2578 74.4766 30.2578C74.8151 30.2578 75.1276 30.3359 75.4141 30.4922C75.7266 30.6484 75.8828 30.9479 75.8828 31.3906C75.8828 31.4427 75.8698 31.4948 75.8438 31.5469C75.8438 31.599 75.8438 31.651 75.8438 31.7031C75.8177 31.8333 75.7526 32.4062 75.6484 33.4219C75.5443 34.4375 75.4271 35.6745 75.2969 37.1328C75.1667 38.5651 75.0234 40.1146 74.8672 41.7812C74.7109 43.4219 74.5677 44.9714 74.4375 46.4297C74.3073 47.862 74.1901 49.0859 74.0859 50.1016C73.9818 51.1172 73.9167 51.6901 73.8906 51.8203C75.7917 50.5703 77.7578 49.5286 79.7891 48.6953C81.8203 47.8359 83.8516 47.4062 85.8828 47.4062C88.5651 47.4062 90.8828 47.9661 92.8359 49.0859C94.7891 50.1797 96.4036 51.651 97.6797 53.5C98.9557 55.3229 99.8932 57.4323 100.492 59.8281C101.117 62.224 101.43 64.6979 101.43 67.25C101.43 69.3073 101.234 71.3776 100.844 73.4609C100.479 75.5182 99.9323 77.4974 99.2031 79.3984C98.5 81.2995 97.6016 83.0833 96.5078 84.75C95.4401 86.4167 94.2031 87.862 92.7969 89.0859C91.4167 90.3099 89.8672 91.2734 88.1484 91.9766C86.4297 92.6797 84.5677 93.0312 82.5625 93.0312C80.1406 93.0312 77.9271 92.4974 75.9219 91.4297C73.9167 90.362 72.0547 88.9818 70.3359 87.2891C70.2839 87.9141 70.2448 88.4089 70.2188 88.7734C70.1927 89.138 70.1016 89.4245 69.9453 89.6328C69.8151 89.8151 69.6068 89.9714 69.3203 90.1016C69.0339 90.2057 68.6042 90.3229 68.0312 90.4531C67.7448 90.5312 67.237 90.6615 66.5078 90.8438C65.8047 91 64.9453 91.1823 63.9297 91.3906C62.9401 91.625 61.8333 91.8724 60.6094 92.1328C59.4115 92.3932 58.1875 92.6536 56.9375 92.9141Z" fill="white"/>
</svg>
