<svg width="1434" height="493" viewBox="0 0 1434 493" fill="none" xmlns="http://www.w3.org/2000/svg">
<path fill-rule="evenodd" clip-rule="evenodd" d="M328.199 200.771L288.636 459.078C287.553 466.15 284.602 472.801 280.092 478.338C275.581 483.874 269.675 488.094 262.99 490.556C256.304 493.019 249.084 493.634 242.081 492.339C235.078 491.043 228.55 487.884 223.176 483.19L13.6937 300.192C8.3198 295.499 4.29692 289.444 2.04444 282.657C-0.208042 275.87 -0.60765 268.6 0.887293 261.605C2.38224 254.61 5.71698 248.147 10.5439 242.888C15.3708 237.629 21.5131 233.768 28.3304 231.706L277.388 156.434C283.828 154.487 290.654 154.211 297.229 155.632C303.803 157.053 309.913 160.125 314.987 164.561C320.06 168.997 323.933 174.652 326.244 180.999C328.554 187.346 329.227 194.178 328.199 200.857V200.771Z" fill="url(#paint0_linear_2474_16684)"/>
<path fill-rule="evenodd" clip-rule="evenodd" d="M468.562 46.1044L414.939 398.305C413.853 405.368 410.904 412.009 406.399 417.539C401.893 423.069 395.996 427.285 389.32 429.749C382.645 432.213 375.434 432.834 368.438 431.549C361.442 430.264 354.917 427.119 349.54 422.441L63.5104 172.624C58.1341 167.928 54.1099 161.869 51.8575 155.079C49.6051 148.288 49.2068 141.014 50.7044 134.017C52.202 127.019 55.5405 120.553 60.3717 115.293C65.2029 110.033 71.3499 106.173 78.1716 104.113L417.763 1.69379C424.202 -0.251726 431.026 -0.526208 437.599 0.895974C444.172 2.31816 450.279 5.3906 455.35 9.8266C460.422 14.2626 464.292 19.9175 466.6 26.2635C468.908 32.6095 469.579 39.4398 468.549 46.1168L468.562 46.1044Z" fill="url(#paint1_linear_2474_16684)"/>
<path fill-rule="evenodd" clip-rule="evenodd" d="M300.767 379.882L104.694 208.582L277.388 156.348C283.828 154.4 290.654 154.125 297.229 155.546C303.803 156.967 309.913 160.039 314.987 164.475C320.06 168.911 323.933 174.566 326.244 180.913C328.554 187.26 329.227 194.092 328.199 200.771L300.767 379.882Z" fill="url(#paint2_linear_2474_16684)"/>
<path d="M619.877 133.63V164.319H719.141V50.633H774.017V397.86H719.141V212.765H619.877V397.86H564.044V212.765H523.523V164.319H564.044V132.236C564.044 79.9645 597.455 48.3255 645.172 48.3255C659.011 48.3255 670.467 51.2007 674.286 53.1133V100.597C667.753 98.8161 661.001 97.985 654.234 98.1286C639.929 98.1409 619.877 104.928 619.877 133.63Z" fill="#2A2A2A"/>
<path d="M1032.16 331.213C1019.75 371.934 983.044 405.054 927.174 405.054C864.182 405.054 808.349 359.027 808.349 279.892C808.349 206.039 862.758 157.125 921.452 157.125C993.027 157.125 1035.02 204.608 1035.02 278.461C1035.02 287.568 1034.06 295.243 1033.6 296.206H863.703C865.14 331.682 892.817 357.102 927.174 357.102C960.585 357.102 977.752 339.358 985.389 316.381L1032.16 331.213ZM979.188 255.472C978.243 228.14 960.107 203.645 921.931 203.645C887.095 203.645 867.043 230.497 865.14 255.472H979.188Z" fill="#2A2A2A"/>
<path d="M1274.56 331.213C1262.15 371.934 1225.45 405.054 1169.58 405.054C1106.58 405.054 1050.75 359.027 1050.75 279.892C1050.75 206.039 1105.15 157.125 1163.84 157.125C1235.43 157.125 1277.42 204.608 1277.42 278.461C1277.42 287.568 1276.47 295.243 1275.99 296.206H1106.11C1107.53 331.682 1135.22 357.102 1169.58 357.102C1202.98 357.102 1220.15 339.358 1227.79 316.381L1274.56 331.213ZM1221.58 255.472C1220.63 228.14 1202.5 203.645 1164.32 203.645C1129.49 203.645 1109.45 230.497 1107.53 255.472H1221.58Z" fill="#2A2A2A"/>
<path d="M1381.43 164.319H1429.62V213.678H1381.43V322.107C1381.43 342.726 1390.49 351.364 1411.01 351.364C1417.41 351.246 1423.8 350.602 1430.1 349.439V395.479C1426.76 396.923 1416.26 400.76 1396.22 400.76C1353.25 400.76 1326.55 374.847 1326.55 331.226V213.715H1283.58V164.356H1295.51C1320.31 164.356 1331.29 148.536 1331.29 127.917V92.8718H1381.4L1381.43 164.319Z" fill="#2A2A2A"/>
<defs>
<linearGradient id="paint0_linear_2474_16684" x1="216.415" y1="229.86" x2="92.5492" y2="392.993" gradientUnits="userSpaceOnUse">
<stop stop-color="#0F9D6D"/>
<stop offset="1" stop-color="#08D27A"/>
</linearGradient>
<linearGradient id="paint1_linear_2474_16684" x1="432.656" y1="26.2261" x2="227.322" y2="261.278" gradientUnits="userSpaceOnUse">
<stop stop-color="#0AD28F"/>
<stop offset="1" stop-color="#11E78A"/>
</linearGradient>
<linearGradient id="paint2_linear_2474_16684" x1="307.173" y1="187.195" x2="182.011" y2="333.792" gradientUnits="userSpaceOnUse">
<stop stop-color="#18BA65"/>
<stop offset="1" stop-color="#2FF298"/>
</linearGradient>
</defs>
</svg>
