<?xml version="1.0" encoding="UTF-8" standalone="no"?>
<!-- Generator: Adobe Illustrator 19.0.0, SVG Export Plug-In . SVG Version: 6.00 Build 0)  -->

<svg
   version="1.1"
   id="layer"
   x="0px"
   y="0px"
   viewBox="-153 -46 600 325.79999"
   xml:space="preserve"
   sodipodi:docname="alma.svg"
   width="600"
   height="325.79999"
   inkscape:version="1.2.1 (9c6d41e, 2022-07-14)"
   xmlns:inkscape="http://www.inkscape.org/namespaces/inkscape"
   xmlns:sodipodi="http://sodipodi.sourceforge.net/DTD/sodipodi-0.dtd"
   xmlns="http://www.w3.org/2000/svg"
   xmlns:svg="http://www.w3.org/2000/svg"><defs
   id="defs11" /><sodipodi:namedview
   id="namedview9"
   pagecolor="#ffffff"
   bordercolor="#000000"
   borderopacity="0.25"
   inkscape:showpageshadow="2"
   inkscape:pageopacity="0.0"
   inkscape:pagecheckerboard="0"
   inkscape:deskcolor="#d1d1d1"
   showgrid="false"
   inkscape:zoom="0.36196319"
   inkscape:cx="143.66102"
   inkscape:cy="163"
   inkscape:window-width="1309"
   inkscape:window-height="456"
   inkscape:window-x="0"
   inkscape:window-y="25"
   inkscape:window-maximized="0"
   inkscape:current-layer="layer" />
<style
   type="text/css"
   id="style2">
	.st0{fill:#004261;}
	.st1{fill:#E8494E;}
</style>
<path
   class="st0"
   d="m -57.200002,93.7 v -1.6 h -21.9 c -10.3,0 -17.9,1 -22.899998,3.1 -4.8,1.9 -7.2,6.1 -7.2,12.7 0,9.8 6.9,14.7 20.599998,14.7 11.5,0 19.6,-2.4 24.2,-7.2 4.8,-5 7.2,-12.2 7.2,-21.7 m -39.9,57.4 C -113.2,151.1 -125.2,147.1 -132.9,139.2 c -7.7,-8.1 -11.6,-18.5 -11.6,-31.3 0,-15.4 5,-26.4 14.9,-33.1 10,-6.9 25.2,-10.4 45.599998,-10.4 h 26.8 v -5.7 c 0,-12.8 -8.1,-19.1 -24.2,-19.1 -14.4,0 -22.399998,5.5 -23.999998,16.6 h -36 c 1.2,-13.3 6.7,-24.4 16.5,-33.4 9.8,-9 24.6,-13.5 44.299998,-13.5 19.6,0 34.4,4.4 44.3,13.2 9.9,8.9 14.9,21.3 14.9,37.3 V 148 h -32.5 v -15 c -7.7,12.1 -22.1,18.1 -43.2,18.1 m 158,-34.6 v 31.3 c -3.6,0.5 -7.4,0.8 -11.3,0.8 -14.3,0 -24.4,-3 -30.4,-9.1 -6,-6.2 -9,-16.1 -9,-29.8 V -46 h 36.6 v 153.2 c 0,3.3 0.6,5.7 1.8,7.2 1.2,1.6 3.7,2.3 7.5,2.3 h 2.8 c 1.1,-0.1 1.8,-0.2 2,-0.2 M 205.4,70.9 V 148 H 168.8 V 67.5 c 0,-17.8 -7.2,-26.7 -21.6,-26.7 -8.4,0 -14.9,2.6 -19.6,7.8 -4.5,5.2 -6.7,12.3 -6.7,21.5 V 148 H 84.299998 V 12.5 H 118.1 V 29 c 7,-13.1 20,-19.7 38.9,-19.7 17.9,0 30.9,6.4 39.2,19.1 11.5,-12.8 26.5,-19.1 44.8,-19.1 15.8,0 27.9,4.9 36.3,14.7 8.4,9.8 12.6,22.9 12.6,39.3 V 148 H 253.3 V 67.5 c 0,-17.8 -7.2,-26.7 -21.6,-26.7 -8.6,0 -15.1,2.7 -19.6,8 -4.4,5.3 -6.7,12.6 -6.7,22.1 m 197.1,22.8 v -1.6 h -21.9 c -10.3,0 -17.9,1 -22.9,3.1 -4.8,1.9 -7.2,6.1 -7.2,12.7 0,9.8 6.9,14.7 20.6,14.7 11.5,0 19.6,-2.4 24.2,-7.2 4.8,-5 7.2,-12.2 7.2,-21.7 m -39.9,57.4 c -16.1,0 -28.1,-4 -35.8,-11.9 -7.7,-8.1 -11.6,-18.5 -11.6,-31.3 0,-15.4 5,-26.4 14.9,-33.1 10,-6.9 25.2,-10.4 45.6,-10.4 h 26.8 v -5.7 c 0,-12.8 -8.1,-19.1 -24.2,-19.1 -14.4,0 -22.4,5.5 -24,16.6 h -36.1 c 1.2,-13.3 6.7,-24.4 16.5,-33.4 9.8,-9 24.6,-13.5 44.3,-13.5 19.6,0 34.4,4.4 44.3,13.2 10,8.8 14.9,21.2 14.9,37.3 V 148 h -32.5 v -15 c -7.6,12.1 -22,18.1 -43.1,18.1"
   id="path4" />
<rect
   x="-153"
   y="236.89999"
   class="st1"
   width="600"
   height="42.900002"
   id="rect6" />
</svg>
