<?xml version="1.0" encoding="UTF-8" standalone="no"?>
<!-- Generator: Adobe Illustrator 19.0.0, SVG Export Plug-In . SVG Version: 6.00 Build 0)  -->

<svg
   version="1.1"
   id="layer"
   x="0px"
   y="0px"
   viewBox="-153 -46 600 77.099998"
   xml:space="preserve"
   sodipodi:docname="backmarket.svg"
   width="600"
   height="77.099998"
   inkscape:version="1.2.1 (9c6d41e, 2022-07-14)"
   xmlns:inkscape="http://www.inkscape.org/namespaces/inkscape"
   xmlns:sodipodi="http://sodipodi.sourceforge.net/DTD/sodipodi-0.dtd"
   xmlns="http://www.w3.org/2000/svg"
   xmlns:svg="http://www.w3.org/2000/svg"><defs
   id="defs7" /><sodipodi:namedview
   id="namedview5"
   pagecolor="#ffffff"
   bordercolor="#000000"
   borderopacity="0.25"
   inkscape:showpageshadow="2"
   inkscape:pageopacity="0.0"
   inkscape:pagecheckerboard="0"
   inkscape:deskcolor="#d1d1d1"
   showgrid="false"
   inkscape:zoom="0.36196319"
   inkscape:cx="149.18644"
   inkscape:cy="44.20339"
   inkscape:window-width="1309"
   inkscape:window-height="456"
   inkscape:window-x="0"
   inkscape:window-y="25"
   inkscape:window-maximized="0"
   inkscape:current-layer="layer" />
<path
   d="m -153,-46 h 29.7 c 14.8,0 24,8.3 24,19.2 0.2,6.6 -3.4,12.8 -9.2,16 8.1,2.5 13.6,10 13.6,18.4 0,13.3 -10.3,22.2 -27.1,22.2 h -31 z m 30,31.1 c 7,0 11.1,-3 11.1,-9.6 0,-6.6 -4,-9.5 -11.1,-9.5 h -17.4 v 19.2 h 17.4 z m 3.2,32.8 c 6.9,0 11.7,-3.5 11.7,-10.4 0,-6.9 -4.8,-10.5 -11.7,-10.5 h -20.5 V 17.9 Z M -89.6,2.8 c 0,-18.2 11.9,-28.2 25.8,-28.2 6.8,0 12.6,3.2 16.7,7 l 4.2,-5.9 h 8.1 v 54.2 h -12.4 v -6.7 c -3.5,3.7 -8.9,7.8 -17,7.8 C -76.9,30.9 -89.6,21 -89.6,2.8 Z m 42.5,4 v -7.9 c 0,-7.8 -6.6,-13.6 -14.6,-13.6 -8.4,0 -15.4,5.6 -15.4,17.5 0,11.9 6.9,17.5 15.5,17.5 7.8,0 14.4,-5.7 14.5,-13.5 z M 80.7,-24.3 H 65.6 L 43.4,0.8 V -46 H 31.1 V 29.8 H 43.4 V 4.7 L 65.6,29.8 H 80.8 L 56.7,2.7 Z m 31.1,0 H 96.6 l -24,27.1 24,27.1 h 15.2 L 87.7,2.8 Z m 71,-21.7 -22.5,48.4 v 0 0 L 137.7,-46 h -13.6 v 75.8 h 12.3 v -51.3 l 18.1,39.1 H 166 l 18.1,-39.1 v 51.3 h 12.2 V -46 Z m 21.1,48.8 c 0,-18.2 11.9,-28.2 25.8,-28.2 6.8,0 12.6,3.2 16.7,7 l 4.3,-5.9 h 8.1 v 54.2 h -12.4 v -6.7 c -3.5,3.7 -8.9,7.8 -17,7.8 C 216.7,30.9 203.9,21 203.9,2.8 Z m 42.5,4 v -7.9 c 0,-7.8 -6.6,-13.6 -14.6,-13.6 -8.5,0 -15.4,5.6 -15.4,17.5 0,11.9 6.9,17.5 15.5,17.5 7.9,0 14.5,-5.7 14.5,-13.5 z m 21.1,-31.1 h 8.1 l 4.3,5.9 c 3.7,-4.2 7.3,-6.8 12.8,-6.8 h 9.1 v 11.7 H 288 c -5.1,0 -8.1,2.4 -8.1,8.2 v 35.1 h -12.4 z m 154.9,40.2 v -29.6 h -10 v -10.6 h 10 v -10.5 l 12.5,-7.2 v 17.7 H 447 v 10.6 h -12.1 v 27.6 c 0,3.6 2.1,5.2 6.2,5.2 h 5.4 v 10.7 h -9.1 c -8.9,0 -15,-3.8 -15,-13.9 z m -25.2,-4.5 c -2,5.4 -6.5,9.1 -14,9.1 -8.7,0 -14.7,-5.4 -15.3,-14.3 h 41.5 V 2.4 c 0,-17.4 -11,-27.7 -26.4,-27.7 -14.4,0 -27.1,11.3 -27.1,28.2 0,16.9 10.8,28.2 27.1,28.2 12.6,0 21.3,-6.1 25,-17.2 -3.2,-0.9 -6.9,-1.7 -10.8,-2.5 z M 383,-15.3 c 7.8,0 14,4.4 14.7,12.5 h -29.6 c 1.5,-8 7.5,-12.5 14.9,-12.5 z m -25.2,-9 h -15.2 l -22.2,25 V -46 H 308 v 75.8 h 12.4 v -25 l 22.2,25 h 15.2 L 333.7,2.7 Z M -0.4,20 c -9,0 -15.7,-6.2 -15.7,-17.2 0,-11 6.7,-17.3 15.7,-17.3 7.8,0 12.8,3.9 14.5,9.9 2.8,-0.6 8.6,-1.7 11,-2.3 -2.7,-11.6 -12.2,-18.5 -25.6,-18.5 -15.6,0 -27.7,11.4 -27.7,28.2 0,16.8 12.1,28.2 27.7,28.2 C 12.7,31 21.9,24.3 25,12.4 22.5,11.8 16.8,10.7 14,10.1 12,16.3 7.4,20 -0.4,20 Z"
   id="path2" />
</svg>
