<?xml version="1.0" encoding="UTF-8" standalone="no"?>
<!-- Generator: Adobe Illustrator 19.2.1, SVG Export Plug-In . SVG Version: 6.00 Build 0)  -->

<svg
   version="1.1"
   id="layer"
   x="0px"
   y="0px"
   viewBox="0 0 600.05627 109.2"
   xml:space="preserve"
   sodipodi:docname="pennylane.svg"
   width="600.05627"
   height="109.2"
   inkscape:version="1.2.1 (9c6d41e, 2022-07-14)"
   xmlns:inkscape="http://www.inkscape.org/namespaces/inkscape"
   xmlns:sodipodi="http://sodipodi.sourceforge.net/DTD/sodipodi-0.dtd"
   xmlns="http://www.w3.org/2000/svg"
   xmlns:svg="http://www.w3.org/2000/svg"><defs
   id="defs11" /><sodipodi:namedview
   id="namedview9"
   pagecolor="#ffffff"
   bordercolor="#000000"
   borderopacity="0.25"
   inkscape:showpageshadow="2"
   inkscape:pageopacity="0.0"
   inkscape:pagecheckerboard="0"
   inkscape:deskcolor="#d1d1d1"
   showgrid="false"
   inkscape:zoom="0.36196319"
   inkscape:cx="146.42373"
   inkscape:cy="55.254237"
   inkscape:window-width="1309"
   inkscape:window-height="456"
   inkscape:window-x="0"
   inkscape:window-y="25"
   inkscape:window-maximized="0"
   inkscape:current-layer="layer" />
<style
   type="text/css"
   id="style2">
	.st0{fill:#1D231F;}
	.st1{fill:#61D899;}
</style>
<path
   class="st0"
   d="M 145.8,84.1 V 60 h 17.1 c 0.6,0 1.5,0 2.6,-0.1 1.1,-0.1 2.1,-0.2 3,-0.3 4,-0.6 7.3,-1.9 9.9,-4 2.6,-2 4.6,-4.6 5.9,-7.7 1.3,-3.1 1.9,-6.6 1.9,-10.3 0,-3.8 -0.6,-7.3 -1.9,-10.4 -1.3,-3.1 -3.2,-5.7 -5.8,-7.7 -2.6,-2 -5.9,-3.4 -10,-4 -0.9,-0.2 -1.9,-0.3 -2.9,-0.3 -1.1,0 -1.9,-0.1 -2.6,-0.1 h -28.7 v 69 z M 162.4,49.2 H 145.8 V 25.9 h 16.6 c 0.6,0 1.4,0 2.2,0.1 0.8,0 1.5,0.2 2.2,0.4 1.9,0.5 3.4,1.3 4.6,2.5 1.1,1.2 1.9,2.6 2.4,4.1 0.5,1.5 0.7,3.1 0.7,4.5 0,1.4 -0.2,3 -0.7,4.5 -0.5,1.5 -1.3,2.9 -2.4,4.1 -1.1,1.2 -2.6,2.1 -4.6,2.5 -0.7,0.2 -1.4,0.3 -2.2,0.4 -0.8,0.2 -1.5,0.2 -2.2,0.2 z m 78.1,12.3 c 0.5,-6.2 -0.2,-11.6 -2.1,-16.1 -1.8,-4.6 -4.6,-8.1 -8.4,-10.6 -3.8,-2.5 -8.4,-3.8 -13.8,-3.8 -5.1,0 -9.6,1.1 -13.5,3.4 -3.9,2.3 -6.9,5.5 -9.1,9.7 -2.2,4.2 -3.3,9.1 -3.3,14.7 0,5.2 1.1,9.9 3.4,13.9 2.2,4 5.3,7.2 9.3,9.4 4,2.3 8.6,3.4 13.9,3.4 5,0 9.6,-1.3 13.8,-3.9 4.2,-2.6 7.2,-6.2 9.2,-10.9 l -11.5,-3.4 c -1.1,2.4 -2.7,4.2 -4.8,5.5 -2.1,1.3 -4.5,1.9 -7.4,1.9 -4.4,0 -7.8,-1.4 -10.1,-4.3 -1.7,-2.1 -2.8,-4.9 -3.2,-8.2 l -0.1,-0.7 h 32 z m -11.8,-8.8 h -25.6 l 0.1,-0.6 c 0.5,-2.4 1.3,-4.5 2.5,-6.1 l 0.4,-0.6 c 2.3,-2.9 5.9,-4.4 10.6,-4.4 4.2,0 7.3,1.3 9.3,3.9 1.3,1.7 2.2,4.1 2.6,7.2 z m 31.1,31.4 V 57.5 c 0,-3.2 0.4,-5.8 1.1,-7.8 0.7,-2 1.6,-3.6 2.8,-4.8 1.2,-1.2 2.5,-2 3.9,-2.5 1.4,-0.5 2.9,-0.7 4.4,-0.7 2.8,0 5,0.6 6.6,1.8 1.6,1.2 2.8,2.7 3.7,4.5 0.8,1.8 1.3,3.7 1.6,5.7 0.3,2 0.3,3.8 0.3,5.4 V 84 H 296 V 55.1 c 0,-1.2 -0.1,-2.9 -0.3,-4.9 -0.2,-2 -0.7,-4.1 -1.4,-6.3 -0.7,-2.2 -1.8,-4.3 -3.3,-6.3 -1.5,-2 -3.5,-3.6 -6,-4.9 -2.5,-1.3 -5.7,-1.9 -9.5,-1.9 -4.9,0 -9,1.1 -12.3,3.2 -1.5,1 -2.9,2.1 -4.1,3.3 L 258.5,38 V 32.3 H 248 V 84 h 11.8 z m 58.6,0 V 57.5 c 0,-3.2 0.4,-5.8 1.1,-7.8 0.7,-2 1.6,-3.6 2.8,-4.8 1.2,-1.2 2.5,-2 3.9,-2.5 1.4,-0.5 2.9,-0.7 4.4,-0.7 2.8,0 5,0.6 6.6,1.8 1.6,1.2 2.8,2.7 3.7,4.5 0.8,1.8 1.3,3.7 1.6,5.7 0.3,2 0.3,3.8 0.3,5.4 V 84 h 11.8 V 55.1 c 0,-1.2 -0.1,-2.9 -0.3,-4.9 -0.2,-2 -0.7,-4.1 -1.4,-6.3 -0.7,-2.2 -1.8,-4.3 -3.3,-6.3 -1.5,-2 -3.5,-3.6 -6,-4.9 -2.5,-1.3 -5.7,-1.9 -9.5,-1.9 -4.9,0 -9,1.1 -12.3,3.2 -1.5,1 -2.9,2.1 -4.1,3.3 L 317.1,38 V 32.3 H 306.7 V 84 h 11.7 z m 62.8,23 29,-74.7 h -11.6 l -14.2,37 -14.5,-37 h -12.1 l 21.1,51.4 -8.6,23.4 h 10.9 z m 47,-23 V 13.7 h -11.6 v 70.4 z m 27.4,1.5 c 4.7,0 8.6,-0.9 11.7,-2.6 2.3,-1.3 4.4,-3.1 6.2,-5.4 l 0.3,-0.4 v 7 H 484 V 52.4 c 0,-2.2 -0.1,-4.3 -0.3,-6.2 -0.2,-1.9 -0.8,-3.8 -1.7,-5.6 -1.7,-3.4 -4.3,-5.9 -7.8,-7.4 -3.5,-1.5 -7.6,-2.3 -12.2,-2.3 -6.1,0 -11,1.3 -14.6,4 -3.6,2.7 -6.1,6.2 -7.4,10.5 l 10.6,3.3 c 0.9,-2.7 2.4,-4.5 4.6,-5.6 2.2,-1.1 4.5,-1.6 6.8,-1.6 3.9,0 6.7,0.8 8.3,2.5 1.2,1.3 2,3.1 2.3,5.4 l 0.1,0.8 -1.1,0.2 c -0.9,0.1 -1.7,0.2 -2.6,0.4 l -2.5,0.4 c -3.3,0.5 -6.4,1 -9.2,1.5 -2.8,0.5 -5.3,1.1 -7.4,1.8 -2.8,0.9 -5,2.1 -6.8,3.6 -1.7,1.5 -3,3.2 -3.9,5.2 -0.8,2 -1.3,4.2 -1.3,6.7 0,2.8 0.7,5.4 2,7.8 1.3,2.4 3.3,4.3 5.9,5.7 2.8,1.3 6,2.1 9.8,2.1 z m 2.3,-9.2 c -1.8,0 -3.4,-0.3 -4.6,-0.9 -1.2,-0.6 -2.2,-1.3 -2.8,-2.3 -0.6,-1 -1,-2.1 -1,-3.4 0,-1.1 0.2,-2.1 0.7,-2.9 0.5,-0.8 1.2,-1.6 2.1,-2.2 0.9,-0.6 2.1,-1.2 3.4,-1.7 1.4,-0.4 3,-0.9 4.8,-1.2 1.8,-0.4 4,-0.8 6.5,-1.2 1.4,-0.2 3,-0.5 4.8,-0.8 l 0.6,-0.1 v 0.4 c 0,0.5 0,1.1 -0.1,1.7 v 0.9 c -0.1,1.9 -0.4,3.6 -1,5.1 -0.4,1.2 -1.1,2.4 -2.2,3.8 -1.1,1.3 -2.6,2.5 -4.5,3.4 -1.8,0.9 -4.1,1.4 -6.7,1.4 z m 48.6,7.7 V 57.5 c 0,-3.2 0.4,-5.8 1.1,-7.8 0.7,-2 1.6,-3.6 2.8,-4.8 1.2,-1.2 2.5,-2 3.9,-2.5 1.4,-0.5 2.9,-0.7 4.4,-0.7 2.8,0 5,0.6 6.6,1.8 1.6,1.2 2.8,2.7 3.7,4.5 0.8,1.8 1.3,3.7 1.6,5.7 0.2,2 0.3,3.8 0.3,5.4 V 84 h 11.8 V 55.1 c 0,-1.2 -0.1,-2.9 -0.3,-4.9 -0.2,-2 -0.7,-4.1 -1.4,-6.3 -0.7,-2.2 -1.8,-4.3 -3.3,-6.3 -1.5,-2 -3.5,-3.6 -6,-4.9 -2.5,-1.3 -5.7,-1.9 -9.5,-1.9 -4.9,0 -9,1.1 -12.3,3.2 -1.5,1 -2.9,2.1 -4.1,3.3 L 505.2,38 V 32.3 H 494.8 V 84 h 11.7 z m 93.4,-22.6 c 0.5,-6.2 -0.2,-11.6 -2.1,-16.1 -1.8,-4.6 -4.6,-8.1 -8.4,-10.6 -3.8,-2.5 -8.4,-3.8 -13.8,-3.8 -5.1,0 -9.6,1.1 -13.5,3.4 -3.9,2.3 -6.9,5.5 -9.1,9.7 -2.2,4.2 -3.3,9.1 -3.3,14.7 0,5.2 1.1,9.9 3.4,13.9 2.2,4 5.3,7.2 9.3,9.4 4,2.3 8.6,3.4 13.9,3.4 5,0 9.6,-1.3 13.8,-3.9 4.2,-2.6 7.2,-6.2 9.2,-10.9 l -11.5,-3.4 c -1.1,2.4 -2.7,4.2 -4.8,5.5 -2.1,1.3 -4.5,1.9 -7.4,1.9 -4.4,0 -7.8,-1.4 -10.1,-4.3 -1.7,-2.1 -2.8,-4.9 -3.2,-8.2 l -0.1,-0.7 h 32 z m -11.8,-8.8 h -25.6 l 0.1,-0.6 c 0.5,-2.4 1.3,-4.5 2.5,-6.1 l 0.4,-0.6 c 2.3,-2.9 5.9,-4.4 10.6,-4.4 4.2,0 7.3,1.3 9.3,3.9 1.3,1.7 2.2,4.1 2.6,7.2 z"
   id="path4" />
<path
   class="st1"
   d="M 78.7,27.9 68.2,17.2 62.4,11.3 c -8,-8.1 -20.8,-8.1 -28.8,0 l -2,2 8.5,8.7 c 1.1,1.1 2.9,1.1 4,0 1,-1 2.4,-1.6 3.8,-1.6 1.4,0 2.8,0.6 3.8,1.6 L 57.5,27.9 48,37.6 10.9,0 0.4,10.7 17.3,27.8 0,45.4 62.9,109.2 73.5,98.5 58.6,83.4 81.6,60 c 7.9,-8.1 7.9,-21.1 0,-29.2 z M 71,49.3 49.9,70.6 c -1.1,1.1 -2.9,1.1 -4,0 L 21.1,45.4 27.8,38.6 48,59.1 68.1,38.6 71,41.5 c 1,1 1.6,2.4 1.6,3.9 0,1.5 -0.6,2.8 -1.6,3.9 z M 84.4,22.1 95.5,10.8 85,0.1 71.8,13.4 l 8.5,8.7 c 1.2,1.1 3,1.1 4.1,0 z"
   id="path6" />
</svg>
