<svg width="1086" height="990" viewBox="0 0 1086 990" fill="none" xmlns="http://www.w3.org/2000/svg">
<mask id="mask0_1_73" style="mask-type:alpha" maskUnits="userSpaceOnUse" x="0" y="-697" width="1687" height="1687">
<circle cx="843.5" cy="146.5" r="843.5" fill="url(#paint0_radial_1_73)"/>
</mask>
<g mask="url(#mask0_1_73)">
<line x1="1331.14" y1="-211.513" x2="123.612" y2="1780.36" stroke="#D4D4D5"/>
<line x1="1288.38" y1="-237.433" x2="80.8551" y2="1754.44" stroke="#D4D4D5"/>
<line x1="1245.62" y1="-263.353" x2="38.0983" y2="1728.52" stroke="#D4D4D5"/>
<line x1="1202.86" y1="-289.274" x2="-4.65846" y2="1702.6" stroke="#D4D4D5"/>
<line x1="1160.11" y1="-315.194" x2="-47.4152" y2="1676.68" stroke="#D4D4D5"/>
<line x1="1117.35" y1="-341.114" x2="-90.1719" y2="1650.76" stroke="#D4D4D5"/>
<line x1="1074.59" y1="-367.034" x2="-132.929" y2="1624.84" stroke="#D4D4D5"/>
<line x1="1031.84" y1="-392.955" x2="-175.685" y2="1598.92" stroke="#D4D4D5"/>
<line x1="989.081" y1="-418.875" x2="-218.442" y2="1572.99" stroke="#D4D4D5"/>
<line x1="946.324" y1="-444.795" x2="-261.199" y2="1547.07" stroke="#D4D4D5"/>
<line x1="903.568" y1="-470.715" x2="-303.956" y2="1521.15" stroke="#D4D4D5"/>
<line x1="860.811" y1="-496.636" x2="-346.712" y2="1495.23" stroke="#D4D4D5"/>
<line x1="818.054" y1="-522.556" x2="-389.469" y2="1469.31" stroke="#D4D4D5"/>
<line x1="775.297" y1="-548.476" x2="-432.226" y2="1443.39" stroke="#D4D4D5"/>
<line x1="732.541" y1="-574.396" x2="-474.983" y2="1417.47" stroke="#D4D4D5"/>
<line x1="689.784" y1="-600.317" x2="-517.74" y2="1391.55" stroke="#D4D4D5"/>
<line x1="647.027" y1="-626.237" x2="-560.496" y2="1365.63" stroke="#D4D4D5"/>
<line x1="604.27" y1="-652.157" x2="-603.253" y2="1339.71" stroke="#D4D4D5"/>
<line x1="561.514" y1="-678.077" x2="-646.01" y2="1313.79" stroke="#D4D4D5"/>
<line x1="518.757" y1="-703.998" x2="-688.767" y2="1287.87" stroke="#D4D4D5"/>
<line x1="476" y1="-729.918" x2="-731.523" y2="1261.95" stroke="#D4D4D5"/>
<line x1="433.243" y1="-755.838" x2="-774.28" y2="1236.03" stroke="#D4D4D5"/>
<line x1="390.486" y1="-781.758" x2="-817.037" y2="1210.11" stroke="#D4D4D5"/>
<line x1="347.73" y1="-807.679" x2="-859.794" y2="1184.19" stroke="#D4D4D5"/>
<line x1="304.973" y1="-833.599" x2="-902.55" y2="1158.27" stroke="#D4D4D5"/>
<line x1="262.216" y1="-859.519" x2="-945.307" y2="1132.35" stroke="#D4D4D5"/>
<line x1="219.459" y1="-885.44" x2="-988.064" y2="1106.43" stroke="#D4D4D5"/>
<line x1="1373.89" y1="-185.593" x2="166.369" y2="1806.28" stroke="#D4D4D5"/>
<line x1="1416.65" y1="-159.672" x2="209.125" y2="1832.2" stroke="#D4D4D5"/>
<line x1="1459.41" y1="-133.752" x2="251.882" y2="1858.12" stroke="#D4D4D5"/>
<line x1="1502.16" y1="-107.832" x2="294.639" y2="1884.04" stroke="#D4D4D5"/>
<line x1="1544.92" y1="-81.9116" x2="337.396" y2="1909.96" stroke="#D4D4D5"/>
<line x1="1111.34" y1="1241.6" x2="-789.603" y2="806.955" stroke="#D4D4D5"/>
<line x1="1122.48" y1="1192.86" x2="-778.458" y2="758.213" stroke="#D4D4D5"/>
<line x1="1133.63" y1="1144.12" x2="-767.314" y2="709.471" stroke="#D4D4D5"/>
<line x1="1144.77" y1="1095.38" x2="-756.169" y2="660.729" stroke="#D4D4D5"/>
<line x1="1155.92" y1="1046.64" x2="-745.024" y2="611.987" stroke="#D4D4D5"/>
<line x1="1167.06" y1="997.893" x2="-733.879" y2="563.244" stroke="#D4D4D5"/>
<line x1="1178.21" y1="949.151" x2="-722.734" y2="514.502" stroke="#D4D4D5"/>
<line x1="1189.35" y1="900.409" x2="-711.589" y2="465.76" stroke="#D4D4D5"/>
<line x1="1200.5" y1="851.667" x2="-700.445" y2="417.018" stroke="#D4D4D5"/>
<line x1="1211.64" y1="802.925" x2="-689.3" y2="368.276" stroke="#D4D4D5"/>
<line x1="1222.79" y1="754.183" x2="-678.155" y2="319.534" stroke="#D4D4D5"/>
<line x1="1233.93" y1="705.441" x2="-667.01" y2="270.792" stroke="#D4D4D5"/>
<line x1="1245.08" y1="656.699" x2="-655.865" y2="222.05" stroke="#D4D4D5"/>
<line x1="1256.22" y1="607.957" x2="-644.72" y2="173.308" stroke="#D4D4D5"/>
<line x1="1267.37" y1="559.214" x2="-633.576" y2="124.566" stroke="#D4D4D5"/>
<line x1="1278.51" y1="510.472" x2="-622.431" y2="75.8234" stroke="#D4D4D5"/>
<line x1="1289.66" y1="461.73" x2="-611.286" y2="27.0813" stroke="#D4D4D5"/>
<line x1="1300.8" y1="412.988" x2="-600.141" y2="-21.6608" stroke="#D4D4D5"/>
<line x1="1311.95" y1="364.246" x2="-588.996" y2="-70.4029" stroke="#D4D4D5"/>
<line x1="1323.09" y1="315.504" x2="-577.851" y2="-119.145" stroke="#D4D4D5"/>
<line x1="1334.24" y1="266.762" x2="-566.706" y2="-167.887" stroke="#D4D4D5"/>
<line x1="1345.38" y1="218.02" x2="-555.562" y2="-216.629" stroke="#D4D4D5"/>
<line x1="1356.53" y1="169.278" x2="-544.417" y2="-265.371" stroke="#D4D4D5"/>
<line x1="1367.67" y1="120.536" x2="-533.272" y2="-314.113" stroke="#D4D4D5"/>
<line x1="1378.81" y1="71.7935" x2="-522.127" y2="-362.855" stroke="#D4D4D5"/>
<line x1="1389.96" y1="23.0514" x2="-510.982" y2="-411.598" stroke="#D4D4D5"/>
<line x1="1100.19" y1="1290.35" x2="-800.748" y2="855.697" stroke="#D4D4D5"/>
<line x1="1089.05" y1="1339.09" x2="-811.893" y2="904.439" stroke="#D4D4D5"/>
<line x1="1077.9" y1="1387.83" x2="-823.038" y2="953.181" stroke="#D4D4D5"/>
</g>
<defs>
<radialGradient id="paint0_radial_1_73" cx="0" cy="0" r="1" gradientUnits="userSpaceOnUse" gradientTransform="translate(843.5 146.5) rotate(90) scale(843.5)">
<stop/>
<stop offset="1" stop-color="#D9D9D9" stop-opacity="0"/>
</radialGradient>
</defs>
</svg>
